<?xml version="1.0" standalone="no"?>
<!DOCTYPE svg PUBLIC "-//W3C//DTD SVG 20010904//EN"
 "http://www.w3.org/TR/2001/REC-SVG-20010904/DTD/svg10.dtd">
<svg version="1.0" xmlns="http://www.w3.org/2000/svg"
 width="160.000000pt" height="117.000000pt" viewBox="0 0 160.000000 117.000000"
 preserveAspectRatio="xMidYMid meet">
<metadata>
Created by potrace 1.16, written by Peter Selinger 2001-2019
</metadata>
<g transform="translate(0.000000,117.000000) scale(0.100000,-0.100000)"
fill="#99472D" stroke="none">
<path d="M127 1146 c-21 -8 -47 -22 -59 -33 -47 -43 -48 -50 -48 -445 0 -335
2 -377 18 -408 20 -40 74 -80 109 -80 17 0 29 -10 41 -32 56 -104 145 -152
245 -129 64 14 119 57 143 111 l18 40 205 0 206 0 25 -47 c79 -149 290 -145
371 7 19 35 31 46 58 51 43 9 81 37 106 80 19 31 20 52 20 274 0 189 -3 245
-14 265 -22 39 -293 320 -326 338 -27 15 -86 17 -555 19 -426 2 -532 0 -563
-11z m1191 -198 c68 -68 137 -141 153 -162 l29 -39 0 -217 c0 -204 -1 -217
-20 -238 -31 -33 -57 -28 -79 15 -24 47 -66 88 -106 103 -42 16 -139 14 -173
-4 -38 -20 -82 -66 -102 -108 l-15 -33 -195 -2 c-107 -2 -200 0 -205 5 -6 4
-23 28 -38 54 -70 121 -244 137 -337 32 -16 -19 -33 -46 -36 -59 -8 -34 -46
-33 -73 1 -20 26 -21 38 -21 366 0 280 3 344 15 368 8 15 20 30 27 33 7 3 247
6 532 6 l519 1 125 -122z m-877 -623 c34 -18 69 -70 69 -103 0 -60 -61 -122
-119 -122 -100 0 -157 115 -94 190 42 51 90 62 144 35z m833 -4 c39 -26 55
-57 56 -106 1 -135 -192 -156 -231 -25 -30 99 89 187 175 131z"/>
<path d="M402 1018 c-7 -7 -12 -26 -12 -44 0 -26 -6 -34 -31 -44 -29 -12 -32
-11 -68 24 -39 38 -59 44 -79 24 -21 -21 -13 -57 19 -90 21 -22 29 -39 25 -53
-3 -11 -6 -23 -6 -27 0 -5 -13 -8 -30 -8 -75 0 -88 -80 -14 -90 31 -4 41 -10
48 -33 9 -24 6 -31 -22 -60 -48 -49 -41 -97 13 -97 8 0 31 14 50 32 31 27 40
30 63 22 22 -8 28 -17 32 -49 5 -38 7 -40 40 -40 32 0 35 2 41 39 10 63 57 76
101 26 34 -38 74 -41 90 -5 10 23 8 29 -27 65 -36 37 -37 40 -25 69 10 25 18
31 44 31 36 0 56 15 56 41 0 22 -37 49 -67 49 -15 0 -27 9 -35 25 -10 22 -7
29 26 65 41 45 44 60 18 83 -27 25 -44 21 -82 -18 -19 -19 -39 -35 -45 -35
-22 0 -46 26 -51 55 -9 51 -43 72 -72 43z m101 -196 c62 -64 16 -172 -73 -172
-55 0 -100 46 -100 102 0 89 112 134 173 70z"/>
<path d="M932 968 c-17 -17 -17 -309 0 -326 9 -9 69 -12 208 -12 222 0 240 5
240 64 0 29 -16 50 -122 160 l-123 126 -95 0 c-61 0 -100 -4 -108 -12z m240
-155 c43 -43 78 -81 78 -86 0 -4 -55 -6 -122 -5 l-123 3 -3 69 c-4 91 -1 96
50 96 40 0 48 -5 120 -77z"/>
<path d="M361 246 c-7 -8 -11 -25 -9 -38 2 -18 9 -23 32 -23 36 0 56 27 40 53
-14 22 -48 27 -63 8z"/>
<path d="M1180 240 c-15 -28 4 -60 35 -60 26 0 45 26 37 50 -12 34 -56 40 -72
10z"/>
</g>
</svg>
