<svg data-v-423bf9ae="" xmlns="http://www.w3.org/2000/svg" viewBox="0 0 373.7082820914966 60" class="font"><!----><!----><!----><g data-v-423bf9ae="" id="60cd0f6d-eb11-48d6-87b3-2793533a0e81" fill="black" transform="matrix(5.272407679843658,0,0,5.272407679843658,-2.7416559948866848,3.6906856110617845)"><path d="M4.06 5.74L4.06 5.74Q2.27 5.50 1.44 4.77Q0.62 4.05 0.62 2.70L0.62 2.70L0.62 2.56Q0.62 1.11 1.60 0.25Q2.59-0.60 4.35-0.60L4.35-0.60Q6.27-0.60 7.17 0.31Q8.08 1.22 8.08 3.08L8.08 3.08L8.08 3.40L6.20 3.40Q6.20 2.17 5.77 1.60Q5.33 1.04 4.37 1.04L4.37 1.04L4.24 1.04Q3.47 1.04 3.00 1.43Q2.53 1.82 2.53 2.46L2.53 2.46L2.53 2.55Q2.53 3.26 2.98 3.64Q3.43 4.02 4.66 4.19L4.66 4.19Q6.48 4.44 7.33 5.15Q8.18 5.87 8.18 7.28L8.18 7.28L8.18 7.43Q8.18 8.97 7.17 9.83Q6.17 10.68 4.35 10.68L4.35 10.68Q0.52 10.68 0.52 6.96L0.52 6.96L0.52 6.82L2.39 6.82Q2.39 9.04 4.28 9.04L4.28 9.04L4.41 9.04Q5.28 9.04 5.77 8.62Q6.26 8.20 6.26 7.50L6.26 7.50L6.26 7.42Q6.26 6.69 5.77 6.30Q5.28 5.91 4.06 5.74ZM9.42 8.15L9.42 3.08L11.23 3.08L11.23 7.87Q11.23 9.09 12.42 9.09L12.42 9.09Q13.43 9.09 13.96 8.25L13.96 8.25L13.96 3.08L15.78 3.08L15.78 8.40L15.89 10.50L14.28 10.50L14.11 9.52Q13.31 10.68 11.70 10.68L11.70 10.68Q10.56 10.68 9.99 9.97Q9.42 9.25 9.42 8.15L9.42 8.15ZM23.73 5.42L23.73 10.50L21.92 10.50L21.92 5.71Q21.92 5.15 21.63 4.82Q21.34 4.48 20.75 4.48L20.75 4.48Q19.73 4.48 19.21 5.33L19.21 5.33L19.21 10.50L17.39 10.50L17.39 5.18L17.26 3.08L18.87 3.08L19.04 4.06Q19.84 2.90 21.45 2.90L21.45 2.90Q22.60 2.90 23.16 3.61Q23.73 4.33 23.73 5.42L23.73 5.42ZM29.79 4.76L29.79 5.32Q29.79 7.24 30.25 8.14Q30.72 9.04 31.85 9.04L31.85 9.04L31.98 9.04Q33.74 9.04 33.74 6.82L33.74 6.82L35.63 6.82L35.63 6.96Q35.63 8.88 34.70 9.78Q33.77 10.68 31.86 10.68L31.86 10.68Q29.81 10.68 28.84 9.41Q27.87 8.13 27.87 5.32L27.87 5.32L27.87 4.76Q27.87 1.95 28.84 0.67Q29.81-0.60 31.86-0.60L31.86-0.60Q33.77-0.60 34.70 0.31Q35.63 1.23 35.63 3.21L35.63 3.21L35.63 3.68L33.74 3.68Q33.74 2.32 33.34 1.68Q32.94 1.04 31.98 1.04L31.98 1.04L31.85 1.04Q30.72 1.04 30.25 1.94Q29.79 2.84 29.79 4.76L29.79 4.76ZM37.03-0.70L38.85-0.70L38.85 3.84Q39.65 2.90 41.09 2.90L41.09 2.90Q42.24 2.90 42.81 3.61Q43.37 4.33 43.37 5.42L43.37 5.42L43.37 10.50L41.57 10.50L41.57 5.71Q41.57 5.15 41.27 4.82Q40.98 4.48 40.39 4.48L40.39 4.48Q39.37 4.48 38.85 5.33L38.85 5.33L38.85 10.50L37.03 10.50L37.03-0.70ZM50.99 10.50L49.38 10.50L49.24 9.65Q48.34 10.68 46.82 10.68L46.82 10.68Q45.70 10.68 45.14 10.07Q44.58 9.45 44.58 8.50L44.58 8.50L44.58 8.36Q44.58 7.24 45.26 6.73Q45.93 6.22 47.17 6.03L47.17 6.03L49.06 5.74L49.06 5.71Q49.06 4.98 48.78 4.65Q48.51 4.31 47.82 4.31L47.82 4.31Q46.59 4.31 46.59 5.53L46.59 5.53L44.86 5.53L44.86 5.40Q44.86 4.33 45.55 3.61Q46.24 2.90 47.87 2.90L47.87 2.90Q49.52 2.90 50.20 3.61Q50.88 4.33 50.88 5.71L50.88 5.71L50.88 8.40L50.99 10.50ZM47.45 9.18L47.45 9.18Q48.48 9.18 49.06 8.41L49.06 8.41L49.06 6.85L47.50 7.10Q46.40 7.28 46.40 8.16L46.40 8.16L46.40 8.27Q46.40 8.65 46.66 8.92Q46.93 9.18 47.45 9.18ZM55.31 9.27L55.31 9.27Q55.94 9.27 56.27 9.02Q56.59 8.76 56.59 8.34L56.59 8.34Q56.59 7.87 56.28 7.67Q55.97 7.46 55.17 7.39L55.17 7.39Q53.63 7.27 52.98 6.80Q52.32 6.33 52.32 5.35L52.32 5.35L52.32 5.24Q52.32 4.09 53.14 3.49Q53.96 2.90 55.31 2.90L55.31 2.90Q58.32 2.90 58.32 5.43L58.32 5.43L58.32 5.50L56.55 5.50Q56.55 4.31 55.31 4.31L55.31 4.31Q54.74 4.31 54.43 4.55Q54.11 4.79 54.11 5.19L54.11 5.19Q54.11 5.63 54.40 5.83Q54.68 6.03 55.47 6.09L55.47 6.09Q56.98 6.22 57.69 6.66Q58.41 7.11 58.41 8.18L58.41 8.18L58.41 8.27Q58.41 9.39 57.62 10.04Q56.83 10.68 55.31 10.68L55.31 10.68Q53.79 10.68 53.00 10.00Q52.22 9.31 52.22 8.23L52.22 8.23L52.22 8.18L54.03 8.18Q54.03 9.27 55.31 9.27ZM66.22 6.61L66.22 7.46L61.32 7.46Q61.42 9.27 62.99 9.27L62.99 9.27Q63.69 9.27 64.09 8.93Q64.50 8.58 64.50 8.12L64.50 8.12L66.22 8.12L66.22 8.18Q66.22 9.23 65.36 9.95Q64.50 10.68 62.97 10.68L62.97 10.68Q61.25 10.68 60.38 9.66Q59.50 8.64 59.50 6.97L59.50 6.97L59.50 6.61Q59.50 4.94 60.37 3.92Q61.24 2.90 62.90 2.90L62.90 2.90Q64.54 2.90 65.38 3.92Q66.22 4.94 66.22 6.61L66.22 6.61ZM62.86 4.31L62.86 4.31Q61.43 4.31 61.32 6.12L61.32 6.12L64.39 6.12Q64.30 4.31 62.86 4.31ZM71.19 2.90L71.19 2.90Q71.23 2.90 71.31 2.91Q71.39 2.91 71.40 2.91L71.40 2.91L71.40 4.68L71.09 4.68Q69.89 4.68 69.37 5.46L69.37 5.46L69.37 10.50L67.55 10.50L67.55 5.18L67.42 3.08L69.03 3.08L69.19 3.98Q69.93 2.90 71.19 2.90Z"></path></g><!----><!----></svg>